<svg width="28" height="28" viewBox="0 0 28 28" fill="red" xmlns="http://www.w3.org/2000/svg">
  <path d="M18.375 14C18.375 15.1603 17.9141 16.2731 17.0936 17.0936C16.2731 17.9141 15.1603 18.375 14 18.375C12.8397 18.375 11.7269 17.9141 10.9064 17.0936C10.0859 16.2731 9.625 15.1603 9.625 14C9.625 13.7506 9.65125 13.5071 9.69646 13.2708H8.16667V19.0998C8.16667 19.5052 8.49479 19.8333 8.90021 19.8333H19.1012C19.2955 19.8329 19.4817 19.7555 19.619 19.618C19.7563 19.4804 19.8333 19.2941 19.8333 19.0998V13.2708H18.3035C18.3487 13.5071 18.375 13.7506 18.375 14ZM14 16.9167C14.3831 16.9166 14.7625 16.841 15.1164 16.6943C15.4703 16.5476 15.7919 16.3326 16.0627 16.0617C16.3335 15.7907 16.5483 15.469 16.6949 15.115C16.8414 14.761 16.9168 14.3817 16.9167 13.9985C16.9166 13.6154 16.841 13.2361 16.6943 12.8822C16.5476 12.5282 16.3326 12.2067 16.0617 11.9358C15.7907 11.665 15.469 11.4502 15.115 11.3037C14.761 11.1571 14.3817 11.0818 13.9985 11.0819C13.2248 11.0821 12.4828 11.3896 11.9358 11.9369C11.3889 12.4841 11.0817 13.2263 11.0819 14C11.0821 14.7737 11.3896 15.5157 11.9369 16.0627C12.4841 16.6097 13.2263 16.9169 14 16.9167ZM17.5 10.9375H19.2485C19.3647 10.9375 19.4761 10.8915 19.5584 10.8094C19.6407 10.7274 19.6871 10.6162 19.6875 10.5V8.75146C19.6875 8.63504 19.6413 8.52339 19.5589 8.44107C19.4766 8.35875 19.365 8.3125 19.2485 8.3125H17.5C17.3836 8.3125 17.2719 8.35875 17.1896 8.44107C17.1073 8.52339 17.061 8.63504 17.061 8.75146V10.5C17.0625 10.7406 17.2594 10.9375 17.5 10.9375ZM14 0C10.287 0 6.72601 1.475 4.1005 4.1005C1.475 6.72601 0 10.287 0 14C0 17.713 1.475 21.274 4.1005 23.8995C6.72601 26.525 10.287 28 14 28C15.8385 28 17.659 27.6379 19.3576 26.9343C21.0561 26.2307 22.5995 25.1995 23.8995 23.8995C25.1995 22.5995 26.2307 21.0561 26.9343 19.3576C27.6379 17.659 28 15.8385 28 14C28 12.1615 27.6379 10.341 26.9343 8.64243C26.2307 6.94387 25.1995 5.40052 23.8995 4.1005C22.5995 2.80048 21.0561 1.76925 19.3576 1.06569C17.659 0.362121 15.8385 0 14 0ZM21.2917 19.6715C21.2917 20.5625 20.5625 21.2917 19.6715 21.2917H8.32854C7.4375 21.2917 6.70833 20.5625 6.70833 19.6715V8.32854C6.70833 7.4375 7.4375 6.70833 8.32854 6.70833H19.6715C20.5625 6.70833 21.2917 7.4375 21.2917 8.32854V19.6715Z" fill="white"/>
  </svg>
  